<?xml version="1.0" encoding="UTF-8"?>
<svg id="Layer_1" data-name="Layer 1" xmlns="http://www.w3.org/2000/svg" viewBox="0 0 1920 1080">
  <defs>
    <style>
      .cls-1 {
        fill: #6c54f8;
      }

      .cls-2 {
        fill: #3c15ff;
      }

      .cls-3 {
        fill: #fff;
      }

      .cls-4 {
        fill: #d5cefd;
      }

      .cls-5 {
        fill: #a091fa;
      }
    </style>
  </defs>
  <g>
    <path class="cls-4" d="M1246.91,434.59c0-115.27-93.44-208.71-208.71-208.71s-365.11,93.44-365.11,208.71c0,115.27,249.85,208.71,365.11,208.71,115.27,0,208.71-93.44,208.71-208.71Z"/>
    <path class="cls-5" d="M1246.91,434.59c0-115.27-93.44-208.71-208.71-208.71s-312.98,93.44-312.98,208.71,197.71,208.71,312.98,208.71c115.27,0,208.71-93.44,208.71-208.71Z"/>
    <path class="cls-1" d="M1246.91,434.59c0-115.27-93.44-208.71-208.71-208.71s-260.85,93.44-260.85,208.71,145.58,208.71,260.85,208.71c115.27,0,208.71-93.44,208.71-208.71Z"/>
    <circle class="cls-2" cx="1038.2" cy="434.59" r="208.71"/>
    <path class="cls-3" d="M990.22,427.79l-23.5,8.69,23.5,8.69c21.18,7.84,37.88,24.53,45.71,45.71l8.69,23.5,8.69-23.5c7.84-21.18,24.53-37.88,45.71-45.71l23.5-8.69-23.5-8.69c-21.18-7.84-37.88-24.53-45.71-45.71l-8.69-23.5-8.69,23.5c-7.84,21.18-24.53,37.88-45.71,45.71Z"/>
  </g>
  <g>
    <path class="cls-2" d="M442.71,680.94v168.76h31.03v-168.76h-31.03Z"/>
    <path class="cls-2" d="M606.94,746.06c-3.93-7.03-9.4-12.5-16.43-16.43-7.02-3.92-15.06-5.89-24.12-5.89s-16.42,1.92-22.99,5.77c-5.07,2.98-9.04,7.01-11.89,12.09v-15.14h-28.09v123.23h29.9v-72.26c0-5.44,1.05-10.12,3.17-14.04,2.12-3.93,5.06-6.95,8.83-9.07,3.78-2.12,8.08-3.17,12.91-3.17s9.14,1.05,12.91,3.17c3.78,2.12,6.72,5.13,8.83,9.07,2.12,3.92,3.18,8.6,3.18,14.04v72.26h29.67v-79.29c0-9.21-1.96-17.33-5.89-24.34Z"/>
    <path class="cls-2" d="M699.8,779.02l-19.71-5.9c-2.87-.9-5.4-1.88-7.59-2.94-2.19-1.05-3.89-2.42-5.1-4.08-1.21-1.66-1.81-3.55-1.81-5.66,0-3.78,1.43-6.76,4.3-8.95,2.87-2.18,6.79-3.29,11.78-3.29,6.2,0,11.78,1.62,16.76,4.87,4.99,3.25,8.53,7.66,10.65,13.25l22.65-10.64c-3.78-10.12-10.12-17.98-19.03-23.56-8.91-5.59-19.17-8.38-30.81-8.38-8.91,0-16.8,1.58-23.67,4.75-6.87,3.17-12.24,7.59-16.08,13.25-3.85,5.66-5.78,12.27-5.78,19.82,0,8.46,2.69,15.82,8.04,22.08,5.36,6.27,13.17,10.84,23.45,13.7l20.16,5.66c2.73.76,5.13,1.7,7.25,2.83,2.12,1.13,3.82,2.49,5.1,4.08,1.28,1.58,1.92,3.59,1.92,6,0,3.93-1.59,7.1-4.75,9.52-3.17,2.42-7.4,3.62-12.69,3.62-6.95,0-13.25-1.96-18.91-5.9-5.66-3.92-10.08-9.36-13.25-16.3l-22.42,10.64c3.77,10.73,10.52,19.22,20.27,25.48,9.74,6.27,21.18,9.4,34.32,9.4,9.36,0,17.52-1.58,24.47-4.75,6.94-3.17,12.38-7.6,16.3-13.26,3.92-5.65,5.89-12.19,5.89-19.59,0-8.76-2.75-16.16-8.26-22.2-5.52-6.04-13.33-10.56-23.45-13.59Z"/>
    <path class="cls-2" d="M831.41,726.47v72.26c0,5.43-1.06,10.12-3.17,14.04-2.13,3.93-5.06,6.99-8.84,9.17-3.77,2.19-8.08,3.29-12.91,3.29s-9.17-1.09-13.02-3.29c-3.86-2.18-6.79-5.21-8.83-9.06-2.04-3.86-3.06-8.34-3.06-13.48v-72.94h-29.9v75.43c0,10.12,1.89,18.95,5.66,26.5,3.78,7.56,9.13,13.44,16.08,17.68,6.95,4.22,15.25,6.34,24.92,6.34,8.76,0,16.38-1.89,22.88-5.66,5-2.91,8.93-6.94,11.78-12.1v15.05h28.08v-123.23h-29.67Z"/>
    <path class="cls-2" d="M949.88,725.1c-8.61,0-15.98,1.82-22.09,5.44-4.7,2.78-8.44,7.22-11.21,13.3v-17.38h-28.08v123.23h29.9v-68.64c0-9.36,2.56-16.61,7.69-21.74,5.14-5.13,11.94-7.7,20.39-7.7h10.65v-26.51h-7.25Z"/>
    <path class="cls-2" d="M1083.97,751.27c-4.38-8.39-10.8-15.07-19.25-20.05-8.47-4.98-18.81-7.47-31.03-7.47-9.22,0-17.78,1.78-25.72,5.33-7.92,3.55-14.83,8.5-20.72,14.83-5.9,6.34-10.51,13.63-13.82,21.86-3.32,8.22-4.99,17.03-4.99,26.38,0,11.33,2.45,21.56,7.36,30.69,4.91,9.14,11.9,16.35,20.95,21.64,9.07,5.28,19.63,7.92,31.72,7.92,8.3,0,16.04-1.25,23.21-3.74,7.17-2.49,13.44-5.96,18.8-10.42,5.36-4.46,9.48-9.63,12.35-15.52l-23.56-12.46c-3.02,4.69-7.09,8.53-12.23,11.56-5.14,3.02-11.1,4.52-17.9,4.52-6.04,0-11.33-1.24-15.86-3.73-4.53-2.49-8.04-6.16-10.53-10.99-2.2-4.27-3.43-9.27-3.68-14.95h88.97c.75-3.02,1.36-5.96,1.81-8.83.45-2.87.69-5.66.69-8.38,0-10.42-2.19-19.82-6.57-28.2ZM1001.7,773.81c.26-.93.54-1.84.84-2.73,2.34-6.94,6.04-12.49,11.09-16.64,5.06-4.16,11.67-6.23,19.82-6.23,6.35,0,11.7,1.58,16.08,4.75,4.38,3.18,7.36,7.48,8.95,12.91.73,2.51,1.07,5.16,1.01,7.93h-57.8Z"/>
    <path class="cls-2" d="M1214.67,745.72c-4.08-6.79-10.01-12.15-17.78-16.08-7.78-3.92-16.73-5.89-26.85-5.89-8.15,0-15.89,1.32-23.21,3.96-7.33,2.65-13.78,6.31-19.37,10.99-5.59,4.68-9.9,10.27-12.91,16.76l23.33,12.91c2.87-5.59,6.95-10.2,12.24-13.82,5.28-3.62,11.33-5.43,18.12-5.43,4.08,0,7.77.75,11.09,2.26,3.32,1.52,5.9,3.66,7.7,6.46,1.82,2.8,2.49,6.23,2.04,10.31l-.46,3.33-38.95,6.18c-9.07,1.36-17.07,3.82-24.02,7.36-6.94,3.55-12.42,8.12-16.42,13.7-4,5.59-6,12.31-6,20.16,0,7.25,1.74,13.37,5.21,18.35,3.47,4.98,8.27,8.76,14.38,11.32,6.12,2.57,13.17,3.86,21.18,3.86,6.34,0,12.26-.83,17.78-2.49,5.51-1.66,10.6-4.26,15.29-7.82,1.29-.98,2.54-2.02,3.76-3.13l-1.5,10.73h28.32l11.1-80.2c1.35-9.06,0-16.99-4.08-23.78ZM1184.77,798.95c-.61,5.6-2.49,10.73-5.66,15.41-3.17,4.69-7.17,8.42-12,11.21-4.84,2.8-10.27,4.19-16.31,4.19-4.83,0-8.79-1.05-11.89-3.17-3.1-2.12-4.65-5.29-4.65-9.52,0-4.82,1.88-8.64,5.66-11.43,3.77-2.79,8.46-4.72,14.04-5.78l31.46-5.52-.65,4.61Z"/>
    <path class="cls-2" d="M1304.82,779.24l-19.03-5.89c-3.47-.91-6.49-2.27-9.06-4.08-2.57-1.82-3.86-4.46-3.86-7.92,0-4.08,1.7-7.29,5.1-9.64,3.39-2.34,7.73-3.51,13.02-3.51,6.04,0,11.44,1.56,16.2,4.65,4.76,3.09,7.82,7.35,9.17,12.8l23.34-9.29c-2.73-10.12-8.35-18.08-16.88-23.9-8.53-5.81-18.76-8.72-30.69-8.72-9.21,0-17.47,1.78-24.8,5.33-7.33,3.55-13.07,8.34-17.21,14.38-4.16,6.04-6.23,12.99-6.23,20.84s2.42,14.92,7.25,20.73c4.83,5.82,11.86,10,21.07,12.57l19.71,5.66c3.17.9,6,2.22,8.5,3.96s3.74,4.34,3.74,7.82c0,3.92-1.66,7.25-4.99,9.96-3.32,2.72-8,4.08-14.04,4.08-6.95,0-13.03-1.89-18.24-5.66-5.21-3.78-9.17-9.07-11.89-15.86l-22.89,9.29c1.82,7.1,5.13,13.33,9.97,18.69,4.82,5.36,10.87,9.51,18.12,12.46,7.25,2.94,15.17,4.42,23.78,4.42,9.66,0,18.23-1.78,25.71-5.33,7.47-3.55,13.33-8.34,17.55-14.38,4.23-6.04,6.35-12.83,6.35-20.39s-2.45-14.61-7.36-20.27c-4.91-5.66-12.04-9.94-21.41-12.81Z"/>
    <path class="cls-2" d="M1470.4,751.27c-4.38-8.39-10.8-15.07-19.25-20.05-8.46-4.98-18.8-7.47-31.03-7.47-9.21,0-17.78,1.78-25.71,5.33-7.93,3.55-14.83,8.5-20.73,14.83-5.89,6.34-10.5,13.63-13.82,21.86-3.31,8.22-4.98,17.03-4.98,26.38,0,11.33,2.45,21.56,7.36,30.69,4.9,9.14,11.89,16.35,20.95,21.64,9.06,5.28,19.63,7.92,31.71,7.92,6.11,0,11.91-.68,17.4-2.03v-27.89c-4.86,2.58-10.44,3.87-16.72,3.87s-11.33-1.24-15.86-3.73c-4.52-2.49-8.04-6.16-10.52-10.99-2.2-4.27-3.44-9.27-3.69-14.95h88.97c.75-3.02,1.36-5.96,1.82-8.83.45-2.87.68-5.66.68-8.38,0-10.42-2.19-19.82-6.57-28.2ZM1388.13,773.81c.26-.93.54-1.84.84-2.73,2.34-6.94,6.04-12.49,11.1-16.64,5.05-4.16,11.66-6.23,19.82-6.23,6.34,0,11.69,1.58,16.08,4.75,4.38,3.18,7.35,7.48,8.94,12.91.73,2.51,1.07,5.16,1.01,7.93h-57.8Z"/>
    <path class="cls-2" d="M1477.29,836.66c-.89.33-1.76.7-2.6,1.1-3.01,1.46-5.72,3.4-8.04,5.72-2.98,2.98-5.32,6.59-6.81,10.64-1.73-4.67-4.58-8.77-8.24-11.96-2.68-2.36-5.8-4.23-9.22-5.5,4.04-1.49,7.66-3.84,10.64-6.81,2.99-2.98,5.32-6.6,6.82-10.64,1.33,3.59,3.32,6.84,5.85,9.62.31.35.63.69.97,1.02,2.32,2.32,5.04,4.26,8.04,5.71.84.41,1.71.77,2.6,1.1Z"/>
  </g>
</svg>