<?xml version="1.0" encoding="UTF-8"?>
<svg id="Layer_1" data-name="Layer 1" xmlns="http://www.w3.org/2000/svg" viewBox="0 0 1562.73 673.35">
  <defs>
    <style>
      .cls-1 {
        fill: #3c15ff;
      }
    </style>
  </defs>
  <path class="cls-1" d="M246.11,247.08v174.62h32.11v-174.62h-32.11Z"/>
  <path class="cls-1" d="M416.04,314.47c-4.07-7.27-9.73-12.93-17-17-7.26-4.06-15.58-6.09-24.96-6.09s-16.99,1.99-23.79,5.97c-5.25,3.08-9.35,7.25-12.3,12.51v-15.67h-29.07v127.51h30.94v-74.77c0-5.63,1.09-10.47,3.28-14.53,2.19-4.07,5.24-7.19,9.14-9.38,3.91-2.19,8.36-3.28,13.36-3.28s9.46,1.09,13.36,3.28c3.91,2.19,6.95,5.31,9.14,9.38,2.19,4.06,3.29,8.9,3.29,14.53v74.77h30.7v-82.04c0-9.53-2.03-17.93-6.09-25.19Z"/>
  <path class="cls-1" d="M512.13,348.57l-20.39-6.1c-2.97-.93-5.59-1.95-7.85-3.04-2.27-1.09-4.03-2.5-5.28-4.22-1.25-1.72-1.87-3.67-1.87-5.86,0-3.91,1.48-6.99,4.45-9.26,2.97-2.26,7.03-3.4,12.19-3.4,6.41,0,12.19,1.68,17.34,5.04,5.16,3.36,8.83,7.93,11.02,13.71l23.44-11.01c-3.91-10.47-10.47-18.6-19.69-24.38-9.22-5.78-19.84-8.67-31.88-8.67-9.22,0-17.38,1.64-24.49,4.92-7.11,3.28-12.66,7.85-16.64,13.71-3.98,5.86-5.98,12.7-5.98,20.51,0,8.75,2.78,16.37,8.32,22.85,5.55,6.49,13.63,11.22,24.26,14.18l20.86,5.86c2.82.79,5.31,1.76,7.5,2.93,2.19,1.17,3.95,2.58,5.28,4.22,1.32,1.64,1.99,3.71,1.99,6.21,0,4.07-1.64,7.35-4.92,9.85-3.28,2.5-7.66,3.75-13.13,3.75-7.19,0-13.71-2.03-19.57-6.1-5.86-4.06-10.43-9.68-13.71-16.87l-23.2,11.01c3.9,11.1,10.89,19.89,20.97,26.37,10.08,6.49,21.92,9.73,35.51,9.73,9.69,0,18.13-1.64,25.32-4.92,7.18-3.28,12.81-7.86,16.87-13.72,4.06-5.85,6.09-12.61,6.09-20.27,0-9.06-2.85-16.72-8.55-22.97-5.71-6.25-13.79-10.93-24.26-14.06Z"/>
  <path class="cls-1" d="M648.31,294.19v74.77c0,5.62-1.1,10.47-3.28,14.53-2.2,4.07-5.24,7.23-9.15,9.49-3.9,2.27-8.36,3.4-13.36,3.4s-9.49-1.13-13.47-3.4c-3.99-2.26-7.03-5.39-9.14-9.37-2.11-3.99-3.17-8.63-3.17-13.95v-75.47h-30.94v78.05c0,10.47,1.96,19.61,5.86,27.42,3.91,7.82,9.45,13.91,16.64,18.29,7.19,4.37,15.78,6.56,25.79,6.56,9.06,0,16.95-1.96,23.67-5.86,5.17-3.01,9.24-7.18,12.19-12.52v15.57h29.06v-127.51h-30.7Z"/>
  <path class="cls-1" d="M770.89,292.78c-8.91,0-16.53,1.88-22.86,5.63-4.86,2.88-8.73,7.47-11.6,13.76v-17.98h-29.06v127.51h30.94v-71.02c0-9.69,2.65-17.19,7.96-22.5,5.32-5.31,12.35-7.97,21.1-7.97h11.02v-27.43h-7.5Z"/>
  <path class="cls-1" d="M909.64,319.86c-4.53-8.68-11.17-15.59-19.92-20.75-8.76-5.15-19.46-7.73-32.11-7.73-9.54,0-18.4,1.84-26.61,5.51-8.2,3.67-15.35,8.79-21.44,15.35-6.1,6.56-10.87,14.1-14.3,22.62-3.44,8.51-5.16,17.62-5.16,27.3,0,11.72,2.54,22.31,7.62,31.76,5.08,9.46,12.31,16.92,21.68,22.39,9.38,5.46,20.31,8.2,32.82,8.2,8.59,0,16.6-1.29,24.02-3.87,7.42-2.58,13.91-6.17,19.45-10.78,5.55-4.61,9.81-9.96,12.78-16.06l-24.38-12.89c-3.13,4.85-7.34,8.83-12.65,11.96-5.32,3.12-11.49,4.68-18.52,4.68-6.25,0-11.72-1.28-16.41-3.86-4.69-2.58-8.32-6.37-10.9-11.37-2.28-4.42-3.55-9.59-3.81-15.47h92.06c.78-3.12,1.41-6.17,1.87-9.14.47-2.97.71-5.86.71-8.67,0-10.78-2.27-20.51-6.8-29.18ZM824.51,343.18c.27-.96.56-1.9.87-2.82,2.42-7.18,6.25-12.92,11.48-17.22,5.24-4.3,12.08-6.45,20.51-6.45,6.57,0,12.11,1.64,16.64,4.92,4.53,3.29,7.62,7.74,9.26,13.36.76,2.6,1.11,5.34,1.05,8.21h-59.81Z"/>
  <path class="cls-1" d="M1044.88,314.11c-4.22-7.03-10.36-12.57-18.4-16.64-8.05-4.06-17.31-6.09-27.78-6.09-8.43,0-16.44,1.37-24.02,4.1-7.58,2.74-14.26,6.53-20.04,11.37-5.78,4.84-10.24,10.63-13.36,17.34l24.14,13.36c2.97-5.78,7.19-10.55,12.66-14.3,5.46-3.75,11.72-5.62,18.75-5.62,4.22,0,8.04.78,11.48,2.34,3.44,1.57,6.1,3.79,7.97,6.68,1.88,2.9,2.58,6.45,2.11,10.67l-.48,3.45-40.3,6.39c-9.38,1.41-17.66,3.95-24.85,7.62-7.18,3.67-12.85,8.4-16.99,14.18-4.14,5.78-6.21,12.74-6.21,20.86,0,7.5,1.8,13.83,5.39,18.99,3.59,5.15,8.56,9.06,14.88,11.71,6.33,2.66,13.63,3.99,21.92,3.99,6.56,0,12.69-.86,18.4-2.58,5.7-1.72,10.97-4.41,15.82-8.09,1.33-1.01,2.63-2.09,3.89-3.24l-1.55,11.1h29.3l11.49-82.98c1.4-9.37,0-17.58-4.22-24.61ZM1013.94,369.19c-.63,5.79-2.58,11.1-5.86,15.94-3.28,4.85-7.42,8.71-12.42,11.6-5.01,2.9-10.63,4.34-16.88,4.34-5,0-9.1-1.09-12.3-3.28-3.21-2.19-4.81-5.47-4.81-9.85,0-4.99,1.95-8.94,5.86-11.83,3.9-2.89,8.75-4.88,14.53-5.98l32.55-5.71-.67,4.77Z"/>
  <path class="cls-1" d="M1138.16,348.8l-19.69-6.09c-3.59-.94-6.72-2.35-9.37-4.22-2.66-1.88-3.99-4.61-3.99-8.2,0-4.22,1.76-7.54,5.28-9.97,3.51-2.42,8-3.63,13.47-3.63,6.25,0,11.84,1.61,16.76,4.81,4.92,3.2,8.09,7.61,9.49,13.24l24.15-9.61c-2.82-10.47-8.64-18.71-17.47-24.73-8.83-6.01-19.41-9.02-31.76-9.02-9.53,0-18.08,1.84-25.66,5.51-7.58,3.67-13.52,8.63-17.81,14.88-4.3,6.25-6.45,13.44-6.45,21.56s2.5,15.44,7.5,21.45c5,6.02,12.27,10.35,21.8,13.01l20.39,5.86c3.28.93,6.21,2.3,8.79,4.1s3.87,4.49,3.87,8.09c0,4.06-1.72,7.5-5.16,10.31-3.44,2.81-8.28,4.22-14.53,4.22-7.19,0-13.48-1.96-18.87-5.86-5.39-3.91-9.49-9.38-12.3-16.41l-23.68,9.61c1.88,7.35,5.31,13.79,10.32,19.34,4.99,5.55,11.25,9.84,18.75,12.89,7.5,3.04,15.7,4.57,24.61,4.57,10,0,18.86-1.84,26.6-5.51,7.73-3.67,13.79-8.63,18.16-14.88,4.38-6.25,6.57-13.28,6.57-21.1s-2.54-15.12-7.62-20.97c-5.08-5.86-12.46-10.28-22.15-13.25Z"/>
  <path class="cls-1" d="M1309.49,319.86c-4.53-8.68-11.17-15.59-19.92-20.75-8.75-5.15-19.45-7.73-32.11-7.73-9.53,0-18.4,1.84-26.6,5.51-8.21,3.67-15.35,8.79-21.45,15.35-6.09,6.56-10.86,14.1-14.3,22.62-3.43,8.51-5.15,17.62-5.15,27.3,0,11.72,2.54,22.31,7.62,31.76,5.07,9.46,12.3,16.92,21.68,22.39,9.37,5.46,20.31,8.2,32.81,8.2,6.32,0,12.32-.7,18-2.1v-28.86c-5.03,2.67-10.8,4-17.3,4s-11.72-1.28-16.41-3.86c-4.68-2.58-8.32-6.37-10.89-11.37-2.28-4.42-3.56-9.59-3.82-15.47h92.06c.78-3.12,1.41-6.17,1.88-9.14.47-2.97.7-5.86.7-8.67,0-10.78-2.27-20.51-6.8-29.18ZM1224.36,343.18c.27-.96.56-1.9.87-2.82,2.42-7.18,6.25-12.92,11.49-17.22,5.23-4.3,12.07-6.45,20.51-6.45,6.56,0,12.1,1.64,16.64,4.92,4.53,3.29,7.61,7.74,9.25,13.36.76,2.6,1.11,5.34,1.05,8.21h-59.81Z"/>
  <path class="cls-1" d="M1316.62,408.21c-.92.34-1.82.72-2.69,1.14-3.11,1.51-5.92,3.52-8.32,5.92-3.08,3.08-5.5,6.82-7.05,11.01-1.79-4.83-4.74-9.07-8.53-12.38-2.77-2.44-6-4.38-9.54-5.69,4.18-1.54,7.93-3.97,11.01-7.05,3.09-3.08,5.51-6.83,7.06-11.01,1.38,3.71,3.44,7.08,6.05,9.95.32.36.65.71,1,1.06,2.4,2.4,5.21,4.41,8.32,5.91.87.42,1.77.8,2.69,1.14Z"/>
</svg>