<?xml version="1.0" encoding="UTF-8"?>
<svg id="Layer_1" data-name="Layer 1" xmlns="http://www.w3.org/2000/svg" viewBox="0 0 775.58 673.35">
  <defs>
    <style>
      .cls-1 {
        fill: #6c54f8;
      }

      .cls-2 {
        fill: #3c15ff;
      }

      .cls-3 {
        fill: #fff;
      }

      .cls-4 {
        fill: #d5cefd;
      }

      .cls-5 {
        fill: #a091fa;
      }
    </style>
  </defs>
  <path class="cls-4" d="M577.66,343.44c0-76.16-61.74-137.9-137.9-137.9s-241.23,61.74-241.23,137.9c0,76.16,165.08,137.9,241.23,137.9s137.9-61.74,137.9-137.9Z"/>
  <path class="cls-5" d="M577.66,343.44c0-76.16-61.74-137.9-137.9-137.9s-206.79,61.74-206.79,137.9,130.63,137.9,206.79,137.9,137.9-61.74,137.9-137.9Z"/>
  <path class="cls-1" d="M577.66,343.44c0-76.16-61.74-137.9-137.9-137.9s-172.34,61.74-172.34,137.9,96.18,137.9,172.34,137.9,137.9-61.74,137.9-137.9Z"/>
  <circle class="cls-2" cx="439.77" cy="343.44" r="137.9"/>
  <path class="cls-3" d="M396.74,343.14l-4.2,1.56,4.2,1.56c21.18,7.84,37.88,24.53,45.71,45.71l1.56,4.2,1.56-4.2c7.84-21.18,24.53-37.88,45.71-45.71l4.2-1.56-4.2-1.56c-21.18-7.84-37.88-24.53-45.71-45.71l-1.56-4.2-1.56,4.2c-7.84,21.18-24.53,37.88-45.71,45.71Z"/>
</svg>